<?xml version="1.0" encoding="UTF-8"?>
<svg xmlns="http://www.w3.org/2000/svg" viewBox="50 140 410 230">
  <style>
    path { fill: #000000; }
    @media (prefers-color-scheme: dark) {
      path { fill: #d9ff7f; }
    }
  </style>
  <g transform="translate(240.875,159.875)">
    <path d="M0 0 C3.76 2.73 6.8 5 9.125 9.125 C10.34 20.3 8.21 31.99 6.93 43.08 C6.71 45.08 6.48 47.08 6.26 49.07 C5.67 54.3 5.08 59.51 4.48 64.73 C3.88 70.08 3.28 75.42 2.67 80.76 C1.5 91.22 0.31 101.67 -0.87 112.12 C-2.19 112.12 -3.51 112.12 -4.87 112.12 C-6.48 110.02 -7.75 108.03 -9.06 105.75 C-9.93 104.28 -10.81 102.81 -11.7 101.34 C-12.19 100.52 -12.69 99.7 -13.2 98.85 C-16.1 94.12 -19.15 89.5 -22.19 84.87 C-24.04 82.07 -25.88 79.25 -27.73 76.44 C-28.43 75.37 -29.14 74.29 -29.86 73.18 C-32.6 68.96 -35.38 64.73 -38.12 60.5 C-38.75 59.53 -38.75 59.53 -39.38 58.55 C-42.26 54.1 -45.07 49.62 -47.87 45.12 C-46.48 53.04 -44.35 60.63 -42.03 68.32 C-41.46 70.21 -40.9 72.09 -40.33 73.98 C-39.55 76.59 -38.76 79.21 -37.97 81.82 C-36.97 85.12 -35.98 88.43 -34.99 91.73 C-33.87 95.45 -32.76 99.17 -31.64 102.89 C-30.71 105.97 -29.79 109.04 -28.87 112.12 C-28.65 112.86 -28.42 113.6 -28.19 114.36 C-27.19 117.73 -26.66 120.59 -26.87 124.12 C-30.61 122.75 -33.78 121.04 -37.12 118.88 C-38.13 118.23 -39.14 117.58 -40.18 116.92 C-41.26 116.22 -42.33 115.52 -43.43 114.81 C-44.56 114.08 -45.68 113.36 -46.8 112.63 C-50.16 110.47 -53.52 108.3 -56.87 106.12 C-58.28 105.21 -58.28 105.21 -59.72 104.27 C-67.08 99.5 -74.44 94.71 -81.78 89.91 C-83.33 88.89 -84.88 87.88 -86.43 86.87 C-87.14 86.4 -87.85 85.94 -88.58 85.46 C-91.32 83.67 -93.75 82.16 -96.87 81.12 C-92.09 87 -87.28 92.85 -82.37 98.62 C-78.25 103.47 -74.21 108.36 -70.19 113.3 C-68.03 115.92 -65.84 118.52 -63.63 121.11 C-50.87 136.08 -50.87 136.08 -50.87 139.12 C-61.3 138.54 -71.47 137.06 -81.76 135.4 C-83.45 135.13 -85.14 134.86 -86.82 134.59 C-91.21 133.9 -95.6 133.19 -99.99 132.49 C-104.49 131.77 -108.99 131.05 -113.49 130.34 C-122.28 128.94 -131.08 127.53 -139.87 126.12 C-139.32 118.13 -137.21 110.9 -134.85 103.28 C-134.44 101.93 -134.03 100.57 -133.62 99.22 C-132.52 95.61 -131.41 92.01 -130.31 88.41 C-129.16 84.69 -128.02 80.96 -126.89 77.24 C-124.85 70.58 -122.81 63.93 -120.77 57.29 C-119.06 51.73 -117.35 46.17 -115.65 40.61 C-114.17 35.76 -112.68 30.91 -111.18 26.06 C-110.91 25.17 -110.64 24.29 -110.36 23.38 C-109.61 20.95 -108.86 18.52 -108.11 16.08 C-107.78 15.03 -107.78 15.03 -107.45 13.95 C-105.98 9.23 -105.98 9.23 -104.87 8.125 C-103.25 7.9 -101.63 7.75 -100 7.61 C-84.68 6.19 -70.44 3.28 -55.69 -1.05 C-51.83 -2.17 -47.95 -3.22 -44.06-4.25 C-42.96 -4.54 -41.86 -4.84 -40.73 -5.14 C-26.26 -8.82 -12.78 -7.96 0 0 Z" />
  </g>
  <g transform="translate(327.81,161.16)">
    <path d="M0 0 C11.14 3.15 22.13 5.77 33.74 6.39 C37.18 6.58 39.9 6.73 43.18 7.83 C44.09 9.72 44.09 9.72 44.86 12.26 C45.16 13.22 45.46 14.18 45.77 15.17 C46.25 16.76 46.25 16.76 46.73 18.38 C47.08 19.49 47.42 20.6 47.77 21.74 C48.52 24.16 49.27 26.59 50.01 29.01 C51.18 32.85 52.38 36.68 53.59 40.51 C55.28 45.89 56.97 51.27 58.65 56.65 C58.86 57.33 59.07 58.02 59.29 58.72 C59.72 60.1 60.16 61.49 60.59 62.87 C61.24 64.95 61.89 67.04 62.54 69.12 C65.05 77.13 67.54 85.13 70.03 93.14 C70.78 95.56 71.53 97.97 72.29 100.39 C73.3 103.61 74.3 106.84 75.3 110.07 C75.59 111.01 75.89 111.95 76.19 112.92 C76.59 114.21 76.59 114.21 76.99 115.53 C77.22 116.26 77.45 117 77.69 117.77 C78.18 119.83 78.18 119.83 78.18 123.83 C68.4 125.38 58.61 126.92 48.83 128.46 C42.88 129.4 36.93 130.34 30.98 131.29 C26.89 131.94 22.81 132.58 18.73 133.23 C16.74 133.54 14.76 133.86 12.77 134.18 C9.97 134.62 7.17 135.07 4.37 135.51 C3.54 135.64 2.71 135.77 1.86 135.91 C-2.76 136.63 -7.13 136.96 -11.81 136.83 C-10.18 132.97 -7.6 130.02 -4.88 126.89 C-3.88 125.73 -2.88 124.56 -1.89 123.4 C-1.38 122.81 -0.87 122.22 -0.34 121.61 C2.04 118.82 4.42 116.01 6.8 113.2 C7.26 112.66 7.72 112.12 8.19 111.56 C11.02 108.22 13.8 104.85 16.55 101.45 C20.86 96.15 25.33 91 29.84 85.86 C30.37 85.25 30.9 84.64 31.45 84.01 C31.93 83.47 32.41 82.93 32.9 82.37 C34.37 80.64 34.37 80.64 36.18 77.83 C23.45 85.74 10.8 93.76 -1.81 101.83 C-2.91 102.53 -4.01 103.23 -5.14 103.95 C-8.53 106.12 -11.92 108.28 -15.31 110.45 C-16.9 111.46 -16.9 111.46 -18.52 112.5 C-20.01 113.45 -20.01 113.45 -21.53 114.43 C-22.46 115.02 -23.39 115.61 -24.34 116.22 C-26.37 117.54 -28.36 118.9 -30.35 120.29 C-32.81 121.83 -32.81 121.83 -35.81 121.83 C-34.41 113.69 -32.16 105.9 -29.75 98.01 C-29.36 96.69 -28.96 95.38 -28.56 94.07 C-27.53 90.64 -26.49 87.22 -25.45 83.79 C-23.78 78.31 -22.12 72.82 -20.47 67.33 C-19.89 65.43 -19.31 63.52 -18.73 61.62 C-16.95 55.72 -15.24 49.83 -13.81 43.83 C-27.97 64.98 -27.97 64.98 -41.94 86.26 C-42.54 87.19-43.14 88.11 -43.76 89.06 C-47.08 94.16 -47.08 94.16 -50.39 99.26 C-51.79 101.43 -53.21 103.6 -54.63 105.76 C-55.03 106.39 -55.43 107.02 -55.85 107.67 C-56.78 109.09 -57.79 110.46 -58.81 111.83 C-59.47 111.83 -60.13 111.83 -60.81 111.83 C-62.53 101.4 -63.79 90.94 -64.98 80.44 C-65.18 78.69 -65.38 76.95 -65.58 75.2 C-65.99 71.56 -66.4 67.91 -66.81 64.27 C-67.33 59.63 -67.86 54.99 -68.4 50.35 C-68.81 46.75 -69.22 43.14 -69.62 39.54 C-69.82 37.83 -70.01 36.12 -70.21 34.41 C-73.05 9.74 -73.05 9.74 -70.31 5.5 C-51.32-16.12-23.34-6.63 0 0 Z" />
  </g>
  <g transform="translate(120.56,176.81)">
    <path d="M0 0 C2.43 0.18 2.43 0.18 3.43 1.18 C2.98 7.45 1.4 12.99 -0.59 18.92 C-0.9 19.86 -1.21 20.8 -1.53 21.77 C-2.2 23.8 -2.88 25.83 -3.55 27.86 C-5.39 33.38 -7.21 38.9 -9.03 44.42 C-9.6 46.14 -9.6 46.14 -10.17 47.88 C-14.05 59.63 -17.81 71.4 -21.56 83.18 C-27.81 102.8 -34.17 122.39 -40.59 141.95 C-40.92 142.95 -41.25 143.94 -41.58 144.97 C-42.19 146.82 -42.8 148.68 -43.41 150.53 C-43.68 151.36 -43.95 152.18 -44.23 153.02 C-44.46 153.73 -44.7 154.45 -44.94 155.18 C-45.55 157.17 -46.07 159.16 -46.56 161.18 C-40.89 161.09 -35.22 160.98 -29.55 160.87 C-27.63 160.83 -25.71 160.79 -23.78 160.76 C-0.99 160.4 -0.99 160.4 21.31 156.06 C22.07 155.85 22.83 155.64 23.62 155.43 C28.4 154.11 33.13 152.66 37.81 151.18 C62.95 143.4 90.74 136.37 115.43 149.18 C123.16 153.85 128.94 160.4 133.43 168.18 C133.82 167.48 134.21 166.78 134.61 166.06 C142.26 153.09 152 147.18 166.41 143.4 C189.59 138.84 212.48 146.04 234.36 152.92 C254.02 159.02 272.73 160.33 293.12 160.75 C295.09 160.79 297.07 160.83 299.04 160.88 C303.84 160.98 308.63 161.08 313.43 161.18 C313.24 160.6 313.05 160.03 312.86 159.43 C302.6 128.2 292.43 96.95 282.45 65.63 C279.95 57.79 277.43 49.95 274.91 42.12 C273.8 38.66 272.69 35.19 271.58 31.73 C270.86 29.51 270.15 27.29 269.43 25.06 C268.44 21.99 267.45 18.92 266.47 15.85 C266.17 14.94 265.88 14.03 265.58 13.1 C264.31 9.15 263.1 5.28 262.43 1.18 C265.72 0.38 267.14 0.09 270.43 1.18 C271.62 3.67 272.6 6.07 273.53 8.66 C273.83 9.45 274.13 10.25 274.43 11.07 C275.44 13.77 276.44 16.48 277.43 19.18 C278.16 21.13 278.89 23.08 279.62 25.03 C281.62 30.4 283.61 35.78 285.59 41.16 C287.8 47.15 290.02 53.15 292.24 59.15 C292.69 60.35 293.13 61.55 293.59 62.79 C297.21 72.58 300.84 82.36 304.49 92.14 C305.43 94.68 306.37 97.22 307.32 99.75 C310.68 108.81 314.06 117.86 317.46 126.91 C319.33 131.9 321.19 136.89 323.06 141.88 C323.97 144.32 324.88 146.75 325.8 149.19 C327.08 152.59 328.35 155.99 329.62 159.39 C330.01 160.41 330.39 161.43 330.79 162.48 C331.14 163.42 331.49 164.37 331.85 165.34 C332.16 166.16 332.46 166.98 332.78 167.82 C333.43 170.18 333.43 170.18 333.43 175.18 C276.01 175.18 218.59 175.18 159.43 175.18 C159.43 176.83 159.43 178.48 159.43 180.18 C157.81 181.81 156 181.32 153.76 181.33 C152.27 181.34 152.27 181.34 150.75 181.35 C149.66 181.35 148.58 181.35 147.47 181.35 C145.81 181.36 145.81 181.36 144.12 181.36 C141.78 181.37 139.44 181.37 137.1 181.37 C133.51 181.37 129.92 181.39 126.33 181.41 C124.07 181.41 121.8 181.41 119.53 181.41 C118.45 181.42 117.37 181.43 116.26 181.43 C114.76 181.43 114.76 181.43 113.23 181.43 C111.91 181.43 111.91 181.43 110.56 181.43 C108.43 181.18 108.43 181.18 106.43 179.18 C106.43 177.86 106.43 176.54 106.43 175.18 C49.34 175.18 -7.74 175.18 -66.56 175.18 C-67.91 171.13 -66.8 169.41 -65.34 165.42 C-65.09 164.74 -64.84 164.05 -64.58 163.35 C-63.75 161.06 -62.9 158.78 -62.06 156.5 C-61.46 154.87 -60.87 153.25 -60.27 151.62 C-55.4 138.32 -50.41 125.06 -45.42 111.8 C-41.0 100.07 -36.64 88.32 -32.3 76.55 C-29.06 67.76 -25.81 58.97 -22.56 50.18 C-21.95 48.55 -21.95 48.55 -21.34 46.89 C-18.84 40.15 -16.34 33.41 -13.83 26.68 C-13.03 24.52 -12.23 22.37 -11.43 20.22 C-10.32 17.23 -9.21 14.24 -8.09 11.26 C-7.76 10.37 -7.43 9.47 -7.09 8.55 C-6.79 7.74 -6.48 6.92 -6.17 6.09 C-5.77 5.02 -5.77 5.02 -5.37 3.94 C-4.05 1.08 -3.16 0.23 0 0 Z" />
  </g>
  <g transform="translate(99,289)">
    <path d="M0 0 C14.63 5.01 29.26 10.06 43.84 15.21 C45.18 15.69 46.53 16.16 47.87 16.64 C60.81 21.2 60.81 21.2 67 24 C67 24.66 67 25.32 67 26 C57.01 29.66 47.04 32.63 36.62 34.81 C35.65 35.01 34.67 35.22 33.67 35.43 C22.72 37.64 11.9 38.15 0.75 38.06 C-0.29 38.05 -1.33 38.05 -2.41 38.04 C-4.94 38.03 -7.47 38.02 -10 38 C-11.32 34.02 -10.37 32.06 -9.19 28.06 C-8.9 27.05 -8.9 27.05 -8.6 26.02 C-8.18 24.59 -7.76 23.17 -7.34 21.74 C-6.69 19.57 -6.05 17.4 -5.42 15.22 C-2.02 3.65 -2.02 3.65 0 0 Z" />
  </g>
  <g transform="translate(410,290)">
    <path d="M0 0 C2.83 8.16 5.48 16.37 7.87 24.68 C8.1 25.45 8.32 26.21 8.56 27 C9.61 30.75 10.16 33.28 9 37 C-12.47 37.38 -32.23 35.61 -53 30 C-53.7 29.81 -54.41 29.62 -55.15 29.42 C-65.59 26.6 -65.59 26.6 -68 23 C-52.57 17.29 -37.13 11.63 -21.63 6.11 C-20.13 5.58 -18.62 5.04 -17.12 4.5 C-15.0 3.74 -12.89 2.98 -10.77 2.23 C-8.95 1.58 -8.95 1.58 -7.09 0.92 C-4 0 -4 0 0 0 Z" />
  </g>
</svg>
